<svg width="349" height="226" viewBox="0 0 349 226" fill="none" xmlns="http://www.w3.org/2000/svg">
<path d="M349 223.446H0V226H349V223.446Z" fill="white"/>
<path d="M276.499 178.341C276.499 180.306 265.064 186.035 251.48 186.035C237.897 186.035 227.313 180.306 227.313 178.341C227.313 176.377 238.323 177.009 251.919 177.009C265.516 177.009 276.499 176.373 276.499 178.341Z" fill="#504F60"/>
<path opacity="0.2" d="M276.499 178.341C276.499 180.306 265.064 186.035 251.48 186.035C237.897 186.035 227.313 180.306 227.313 178.341" fill="#1E1E99"/>
<path d="M139.706 142.286C141.91 142.569 144.198 142.749 146.309 142.063C146.642 141.96 147.008 141.73 146.974 141.397C146.951 141.276 146.899 141.162 146.825 141.064C146.029 139.868 145.36 138.592 144.83 137.257C144.809 137.188 144.766 137.127 144.707 137.084C144.638 137.059 144.563 137.059 144.494 137.084C143.52 137.34 142.678 137.97 141.711 138.24C141.217 138.375 140.702 138.414 140.195 138.353C139.756 138.303 139.157 137.94 138.758 137.987C138.984 139.442 139.536 140.801 139.706 142.286Z" fill="#FF70A3"/>
<path d="M181.4 138.599C182.853 137.6 184.359 136.551 185.217 135.009C185.278 134.917 185.314 134.81 185.32 134.699C185.305 134.591 185.263 134.487 185.197 134.4C184.38 133.099 183.328 131.961 182.095 131.046C181.451 131.501 180.87 132.039 180.365 132.645C180 133.031 178.989 133.644 178.979 134.233C178.979 134.566 179.365 134.953 179.544 135.232C179.787 135.592 180.016 135.958 180.236 136.331C180.362 136.515 181.516 138.526 181.4 138.599Z" fill="#FF70A3"/>
<path d="M148.348 146.746C148.374 147.089 148.28 147.43 148.082 147.711C147.927 147.868 147.734 147.982 147.523 148.044C144.441 149.15 140.873 147.771 137.797 148.86C137.165 149.084 136.567 149.407 135.932 149.62C135.175 149.848 134.393 149.986 133.604 150.033C132.517 150.136 131.423 150.203 130.332 150.233C129.504 150.291 128.671 150.218 127.865 150.016C127.462 149.913 127.085 149.726 126.759 149.467C126.433 149.208 126.165 148.883 125.973 148.514C125.806 148.183 125.772 147.8 125.88 147.445C125.928 147.323 125.997 147.211 126.083 147.112C126.291 146.878 126.536 146.679 126.808 146.522L127.941 145.79C128.473 145.413 129.051 145.107 129.66 144.877C130.109 144.731 130.585 144.667 131.04 144.544C132.633 144.078 133.85 142.812 134.981 141.597L136.524 139.948C136.668 139.767 136.851 139.62 137.059 139.519C137.273 139.447 137.5 139.425 137.724 139.455C139.223 139.562 140.67 140.048 141.93 140.867C142.252 141.109 142.6 141.315 142.968 141.48C143.872 141.833 145.033 141.567 145.867 141.12C146.263 140.907 146.176 140.787 146.343 140.408C146.509 140.028 146.915 139.785 147.267 140.131C147.373 140.251 147.449 140.395 147.487 140.551C147.819 141.65 147.693 142.832 147.693 143.985C147.683 144.165 147.705 144.345 147.759 144.518C147.844 144.691 147.945 144.856 148.062 145.01C148.086 145.051 148.107 145.094 148.125 145.137C148.328 145.647 148.405 146.199 148.348 146.746Z" fill="#514E7F"/>
<path d="M148.348 146.746C148.374 147.089 148.28 147.43 148.082 147.711C147.927 147.868 147.734 147.982 147.523 148.044C144.441 149.15 140.873 147.771 137.797 148.86C137.165 149.084 136.567 149.407 135.932 149.62C135.175 149.848 134.393 149.986 133.604 150.033C132.517 150.136 131.423 150.203 130.332 150.233C129.504 150.291 128.671 150.218 127.865 150.016C127.462 149.913 127.085 149.726 126.759 149.467C126.433 149.208 126.165 148.883 125.973 148.514C125.806 148.183 125.772 147.8 125.88 147.445C125.928 147.323 125.997 147.211 126.083 147.112C126.262 147.488 126.392 147.988 126.505 148.168C126.658 148.434 126.865 148.665 127.114 148.845C127.363 149.025 127.647 149.149 127.948 149.21C128.398 149.238 128.849 149.18 129.278 149.04C132.071 148.348 135.041 148.338 137.724 147.288C138.645 146.925 139.523 146.443 140.49 146.223C141.458 146.003 142.486 146.063 143.483 145.98C145.059 145.853 146.585 145.377 148.138 145.127C148.339 145.641 148.411 146.197 148.348 146.746Z" fill="#464353"/>
<path d="M188.459 138.396C188.313 139.569 187.571 140.578 186.756 141.434C185.942 142.289 185.021 143.059 184.372 144.045C183.574 145.267 183.215 146.782 182.178 147.815C181.78 148.19 181.332 148.509 180.848 148.764C180.305 149.084 179.731 149.349 179.135 149.553C177.586 150.049 175.917 149.936 174.297 149.816C173.771 149.811 173.251 149.711 172.761 149.52C172.538 149.406 172.324 149.275 172.123 149.127C171.717 148.876 171.375 148.534 171.125 148.128C171.002 147.907 170.968 147.647 171.029 147.402C171.121 147.131 171.28 146.888 171.491 146.696C171.855 146.316 172.246 145.963 172.661 145.64C173.231 145.272 173.743 144.823 174.184 144.308C174.454 143.9 174.654 143.45 174.773 142.976C175.008 142.145 175.152 141.29 175.202 140.428C175.2 139.855 175.259 139.283 175.378 138.723C175.624 137.843 176.276 137.057 176.203 136.148C176.173 136.018 176.185 135.882 176.236 135.758C176.313 135.662 176.421 135.595 176.542 135.569C177.05 135.366 177.586 135.241 178.131 135.199C178.405 135.18 178.679 135.222 178.934 135.322C179.19 135.423 179.42 135.578 179.607 135.778C179.834 136.052 179.983 136.445 180.316 136.551C180.48 136.596 180.653 136.603 180.821 136.571C181.639 136.488 182.504 136.385 183.149 135.855C183.447 135.587 183.686 135.26 183.852 134.895C184.018 134.53 184.107 134.135 184.113 133.734C184.113 133.431 183.977 133.114 184.446 133.068C184.798 133.021 185.077 133.401 185.257 133.634C185.905 134.503 186.57 135.412 186.813 136.471C186.907 136.435 187.008 136.415 187.109 136.415C187.316 136.413 187.521 136.461 187.706 136.556C187.89 136.65 188.05 136.788 188.17 136.957C188.434 137.387 188.537 137.897 188.459 138.396Z" fill="#514E7F"/>
<path d="M188.459 138.396C188.313 139.569 187.571 140.578 186.756 141.434C185.942 142.29 185.021 143.059 184.372 144.045C183.574 145.267 183.215 146.782 182.178 147.815C181.78 148.19 181.332 148.509 180.848 148.764C180.305 149.085 179.731 149.349 179.135 149.553C177.586 150.049 175.917 149.936 174.297 149.816C173.771 149.811 173.251 149.711 172.761 149.52C172.538 149.406 172.324 149.275 172.123 149.127C171.717 148.877 171.375 148.534 171.125 148.128C171.437 147.978 171.777 147.896 172.123 147.888C172.841 147.928 173.366 148.607 174.054 148.817C175.035 149.114 176.013 148.421 177.007 148.184C177.656 148.031 178.337 148.071 178.979 147.851C179.514 147.644 180.008 147.344 180.439 146.965C181.029 146.543 181.555 146.035 181.998 145.46C182.367 144.885 182.673 144.272 182.913 143.632C183.438 142.405 184.056 141.22 184.761 140.088C184.866 139.909 184.992 139.743 185.137 139.595C185.293 139.452 185.47 139.352 185.646 139.226C186.311 138.723 186.587 137.893 186.82 137.081C186.883 136.834 186.971 136.594 187.082 136.365C187.29 136.363 187.494 136.411 187.679 136.506C187.864 136.6 188.023 136.738 188.143 136.908C188.429 137.347 188.542 137.878 188.459 138.396Z" fill="#464353"/>
<path d="M134.253 85.0959C134.691 86.7611 134.056 88.513 133.538 90.1615C132.757 92.6447 132.224 95.1995 131.948 97.7882C131.914 98.447 131.782 99.097 131.556 99.7166C131.31 100.273 130.891 100.742 130.605 101.272C129.82 102.664 129.84 104.363 130.01 105.954C130.123 107.004 130.292 108.049 130.502 109.082C130.758 110.344 131.074 111.663 130.705 112.895C131.323 112.759 131.742 113.561 131.702 114.191C131.662 114.82 131.459 115.523 131.762 116.066C132.527 116.345 132.533 117.398 132.51 118.214C132.523 119.629 132.701 121.037 133.042 122.41C134.199 127.983 135.427 133.54 136.726 139.082C139.536 139.955 142.818 140.864 145.498 139.655C145.997 139.432 146.496 139.076 146.609 138.536C146.638 138.245 146.602 137.952 146.502 137.677L145.232 133.048C144.923 131.929 144.614 130.773 144.777 129.624C144.9 128.768 145.272 127.845 144.853 127.089C144.71 126.83 144.484 126.626 144.318 126.38C143.653 125.404 144.002 124.099 144.055 122.916C144.076 122.651 144.058 122.384 144.002 122.124C143.911 121.82 143.783 121.528 143.623 121.254C142.573 119.213 142.069 116.935 142.16 114.64C142.199 114.347 142.159 114.049 142.043 113.778C141.963 113.665 141.89 113.547 141.827 113.425C141.778 113.211 141.802 112.986 141.897 112.789C141.516 112.499 141.172 112.163 140.873 111.789C141.057 111.675 141.213 111.519 141.329 111.335C141.445 111.151 141.517 110.943 141.541 110.727C141.565 110.511 141.539 110.292 141.466 110.087C141.393 109.882 141.274 109.697 141.119 109.545C141.255 109.517 141.38 109.453 141.481 109.358C141.582 109.264 141.655 109.143 141.692 109.01C141.729 108.876 141.728 108.735 141.69 108.602C141.652 108.469 141.577 108.349 141.475 108.256C141.312 108.143 141.096 108.093 140.979 107.923C140.8 107.676 140.946 107.333 141.092 107.07L141.867 105.668C142.446 104.626 142.575 103.337 143.197 102.338C144.088 100.882 144.67 99.2603 145.245 97.655L147.483 91.4704L148.99 92.7792C149.491 93.1632 149.912 93.6432 150.226 94.1914C150.441 94.7331 150.576 95.3029 150.629 95.8832C151.181 99.2403 153.289 102.151 154.07 105.458C154.243 106.194 154.36 106.967 154.782 107.596C154.933 107.79 155.069 107.995 155.188 108.209C155.298 108.537 155.355 108.879 155.357 109.225C155.427 109.901 155.641 110.555 155.985 111.141C156.33 111.727 156.796 112.232 157.352 112.622C158.094 113.132 159.015 113.481 159.417 114.287C159.498 114.537 159.609 114.775 159.75 114.997C160.109 115.43 160.884 115.48 161.037 116.022C161.123 116.325 160.963 116.688 161.133 116.955C161.229 117.078 161.357 117.174 161.502 117.231L163.667 118.314C166.087 119.526 167.324 122.31 169.11 124.338C169.727 124.999 170.273 125.722 170.739 126.497C171.511 127.879 171.866 129.614 173.17 130.493C173.52 130.675 173.839 130.912 174.114 131.196C174.523 131.735 174.374 132.491 174.41 133.171C174.447 133.85 174.966 134.659 175.611 134.453C175.385 135.276 175.385 136.145 175.611 136.967C178.443 136.822 181.143 135.726 183.278 133.857C183.91 133.304 184.519 132.598 184.525 131.759C184.535 131.614 184.503 131.469 184.432 131.342C184.304 131.178 184.136 131.051 183.943 130.973C181.918 129.874 181.31 127.326 180.286 125.258C179.391 123.433 178.068 121.861 176.961 120.165C174.553 116.519 172.911 112.106 169.27 109.698C168.468 109.168 167.537 108.699 167.135 107.823C166.912 107.333 166.885 106.774 166.709 106.268C166.533 105.761 166.111 105.268 165.572 105.268C165.871 104.536 165.811 103.643 165.831 102.85C165.852 102.499 165.811 102.146 165.712 101.808C165.573 101.444 165.394 101.098 165.176 100.776C164.226 99.1646 163.751 97.3171 163.806 95.4469C163.833 94.4844 164.003 93.492 163.713 92.5728C163.567 92.1098 163.311 91.6869 163.135 91.2406C162.869 90.432 162.729 89.5873 162.719 88.7361L162.52 85.5356C162.489 84.4697 162.351 83.4096 162.107 82.3716C161.442 79.8871 160.777 69.4795 158.499 68.3072C156.222 67.1349 152.308 75.1446 149.744 75.3011C148.61 75.3484 147.489 75.5651 146.419 75.9439C144.713 76.5833 143.284 77.7756 141.89 78.9413L137.175 82.9078C136.178 83.7305 135.353 84.5164 134.253 85.0959Z" fill="#464353"/>
<path opacity="0.1" d="M127.915 27.3395C127.676 27.3435 127.441 27.4013 127.228 27.5085C127.014 27.6157 126.827 27.7697 126.681 27.959C126.325 28.4219 126.256 29.0347 126.166 29.6242C125.863 31.4918 125.198 33.2818 124.207 34.893" fill="black"/>
<path opacity="0.1" d="M129.611 28.6684C129.281 28.6758 128.959 28.769 128.676 28.9389C128.393 29.1089 128.16 29.3496 127.998 29.6376C127.778 30.1614 127.641 30.7165 127.592 31.2828C127.307 32.5382 126.757 33.718 125.98 34.7431" fill="black"/>
<path d="M208.636 93.7784V89.642C208.635 86.597 207.427 83.677 205.277 81.5242C203.127 79.3714 200.211 78.162 197.171 78.162H34.076C31.0359 78.162 28.1202 79.3714 25.9702 81.5242C23.8202 83.677 22.6118 86.597 22.611 89.642V97.2687L208.636 93.7784Z" fill="#070758"/>
<path d="M79.4476 73.3129C79.4476 73.3129 78.9821 102.241 84.1028 111.759C89.2235 121.278 91.4181 162.685 91.4181 162.685C91.4181 162.685 145.099 168.247 182.507 156.024C219.915 143.802 299.512 138.803 299.512 138.803L286.098 48.2513C286.098 48.2513 219.832 43.995 182.135 62.0027C144.437 80.0104 79.4476 73.3129 79.4476 73.3129Z" fill="#8DD070"/>
<path opacity="0.1" d="M79.4476 73.3129C79.4476 73.3129 78.9821 102.241 84.1028 111.759C89.2235 121.278 91.4181 162.685 91.4181 162.685C91.4181 162.685 145.099 168.247 182.507 156.024C219.915 143.802 299.512 138.803 299.512 138.803L286.098 48.2513C286.098 48.2513 219.832 43.995 182.135 62.0027C144.437 80.0104 79.4476 73.3129 79.4476 73.3129Z" fill="black"/>
<path d="M91.3283 83.8803C91.3283 83.8803 89.6491 107.75 93.8621 115.376C98.075 123.003 98.2712 157.05 98.2712 157.05C98.2712 157.05 146.582 159.295 180.947 147.578C215.313 135.862 287.528 128.262 287.528 128.262L279.322 54.2095C279.322 54.2095 219.569 53.5934 184.695 70.0857C149.821 86.578 91.3283 83.8803 91.3283 83.8803Z" fill="#8DD070"/>
<path opacity="0.1" d="M184.164 134.02C191.038 133.162 195.122 120.497 193.286 105.731C191.449 90.9643 184.388 79.6891 177.514 80.5467C170.641 81.4042 166.557 94.0698 168.393 108.836C170.229 123.602 177.29 134.877 184.164 134.02Z" fill="black"/>
<path opacity="0.2" d="M249.768 4.13974C249.768 4.13974 185.39 20.4589 155.031 49.1839C124.673 77.9089 60.7636 91.5104 60.7636 91.5104C60.7636 91.5104 69.1829 119.183 76.9703 126.67C84.7578 134.157 99.5281 172.896 99.5281 172.896C99.5281 172.896 152.321 161.686 184.176 138.546C216.031 115.406 290.271 86.1817 290.271 86.1817L249.768 4.13974Z" fill="black"/>
<path d="M59.796 87.3673C59.796 87.3673 68.2119 115.043 75.9927 122.53C83.7735 130.017 98.5505 168.753 98.5505 168.753C98.5505 168.753 151.35 157.546 183.209 134.406C215.067 111.266 289.3 82.0519 289.3 82.0519L248.797 0C248.797 0 184.422 16.3191 154.064 45.0441C123.705 73.7691 59.796 87.3673 59.796 87.3673Z" fill="#8DD070"/>
<path opacity="0.1" d="M59.796 87.3673C59.796 87.3673 68.2119 115.043 75.9927 122.53C83.7735 130.017 98.5505 168.753 98.5505 168.753C98.5505 168.753 151.35 157.546 183.209 134.406C215.067 111.266 289.3 82.0519 289.3 82.0519L248.797 0C248.797 0 184.422 16.3191 154.064 45.0441C123.705 73.7691 59.796 87.3673 59.796 87.3673Z" fill="black"/>
<path d="M74.3301 93.7751C74.3301 93.7751 80.0461 117.012 86.3937 122.973C92.7414 128.934 103.352 161.273 103.352 161.273C103.352 161.273 150.017 148.557 179.135 126.843C208.253 105.129 274.663 75.7308 274.663 75.7308L244.168 7.74994C244.168 7.74994 187.112 25.5245 158.972 51.9415C130.831 78.3585 74.3301 93.7751 74.3301 93.7751Z" fill="#8DD070"/>
<path opacity="0.1" d="M178.059 112.961C184.338 110.032 184.345 96.7227 178.073 83.2332C171.801 69.7438 161.627 61.1827 155.347 64.1115C149.068 67.0404 149.061 80.35 155.333 93.8395C161.605 107.329 171.779 115.89 178.059 112.961Z" fill="black"/>
<path opacity="0.1" d="M213.038 97.8382V212.738C213.038 214.043 212.782 215.335 212.283 216.541C211.784 217.746 211.053 218.842 210.132 219.764C209.211 220.687 208.117 221.419 206.913 221.918C205.709 222.417 204.419 222.673 203.116 222.673H32.5365C29.9064 222.672 27.3843 221.625 25.5249 219.762C23.6655 217.899 22.6209 215.373 22.6209 212.738V86.2549C27.5089 88.0734 27.5089 88.0734 32.5365 87.9202H203.116C205.744 87.9202 208.265 88.9645 210.125 90.8239C211.985 92.6833 213.033 95.2059 213.038 97.8382Z" fill="black"/>
<path d="M213.038 99.3002V214.2C213.037 216.835 211.992 219.362 210.131 221.225C208.27 223.088 205.747 224.135 203.116 224.135H32.5365C29.9064 224.134 27.3843 223.087 25.5249 221.224C23.6655 219.361 22.6209 216.834 22.6209 214.2V87.7137C27.5089 89.5287 27.5089 89.5287 32.5365 89.3789H203.116C205.745 89.3789 208.266 90.4236 210.126 92.2838C211.987 94.1439 213.034 96.6674 213.038 99.3002Z" fill="white"/>
<path opacity="0.1" d="M212.553 141.78V178.525H176.974C172.152 178.46 167.549 176.495 164.162 173.057C160.775 169.619 158.876 164.983 158.876 160.152C158.876 155.322 160.775 150.686 164.162 147.248C167.549 143.809 172.152 141.845 176.974 141.78H212.553Z" fill="black"/>
<path d="M213.038 140.801V177.552H177.459C172.637 177.487 168.035 175.523 164.648 172.084C161.261 168.646 159.362 164.01 159.362 159.18C159.362 154.35 161.261 149.714 164.648 146.275C168.035 142.837 172.637 140.872 177.459 140.807L213.038 140.801Z" fill="#FF70A3"/>
<path opacity="0.1" d="M179.165 167.318C183.115 167.318 186.318 164.11 186.318 160.154C186.318 156.198 183.115 152.99 179.165 152.99C175.215 152.99 172.013 156.198 172.013 160.154C172.013 164.11 175.215 167.318 179.165 167.318Z" fill="black"/>
<path d="M179.651 166.345C183.601 166.345 186.803 163.138 186.803 159.181C186.803 155.225 183.601 152.018 179.651 152.018C175.701 152.018 172.498 155.225 172.498 159.181C172.498 163.138 175.701 166.345 179.651 166.345Z" fill="#1E1E99"/>
<path d="M274.796 140.484C275.079 143.552 272.761 146.529 273.436 149.533C273.582 150.176 273.858 150.782 273.958 151.432C274.237 153.217 273.177 154.905 272.163 156.397L263.451 169.199C263.102 169.762 262.684 170.279 262.207 170.738C260.545 172.223 258.044 172.07 255.856 172.513C254.318 172.826 252.866 173.469 251.6 174.398C251.547 174.444 251.513 174.507 251.506 174.577C251.499 174.646 251.518 174.716 251.56 174.771C251.922 175.264 252.401 175.659 252.954 175.919C253.507 176.179 254.116 176.296 254.726 176.26C254.955 176.563 254.726 177.006 254.393 177.222C253.924 177.555 253.282 177.635 253.189 178.428C253.156 178.705 253.212 178.985 253.349 179.227C253.7 179.766 254.246 180.147 254.872 180.29C257.888 181.212 261.146 179.59 263.404 177.382C265.662 175.174 267.281 172.387 269.496 170.139C270.723 168.896 272.116 167.831 273.38 166.625C275.9 164.22 277.859 161.296 279.751 158.369C280.319 157.486 280.891 156.58 281.131 155.558C281.37 154.536 281.257 153.503 281.526 152.514C281.879 151.215 282.826 150.183 283.614 149.094C285.161 146.962 286.191 144.354 285.989 141.73C285.786 139.106 284.16 136.511 281.686 135.619C280.919 135.31 280.073 135.259 279.275 135.472C278.261 135.785 277.513 136.624 276.821 137.427L275.159 139.342C274.744 139.762 274.416 140.26 274.194 140.807C274.088 141.082 274.062 141.382 274.121 141.671C274.18 141.96 274.321 142.225 274.527 142.436" fill="#FBBEBE"/>
<path opacity="0.05" d="M274.796 140.484C275.079 143.552 272.761 146.529 273.436 149.533C273.582 150.176 273.858 150.782 273.958 151.432C274.237 153.217 273.177 154.905 272.163 156.397L263.451 169.199C263.102 169.762 262.684 170.279 262.207 170.738C260.545 172.223 258.044 172.07 255.856 172.513C254.318 172.826 252.866 173.469 251.6 174.398C251.547 174.444 251.513 174.507 251.506 174.577C251.499 174.646 251.518 174.716 251.56 174.771C251.922 175.264 252.401 175.659 252.954 175.919C253.507 176.179 254.116 176.296 254.726 176.26C254.955 176.563 254.726 177.006 254.393 177.222C253.924 177.555 253.282 177.635 253.189 178.428C253.156 178.705 253.212 178.985 253.349 179.227C253.7 179.766 254.246 180.147 254.872 180.29C257.888 181.212 261.146 179.59 263.404 177.382C265.662 175.174 267.281 172.387 269.496 170.139C270.723 168.896 272.116 167.831 273.38 166.625C275.9 164.22 277.859 161.296 279.751 158.369C280.319 157.486 280.891 156.58 281.131 155.558C281.37 154.536 281.257 153.503 281.526 152.514C281.879 151.215 282.826 150.183 283.614 149.094C285.161 146.962 286.191 144.354 285.989 141.73C285.786 139.106 284.16 136.511 281.686 135.619C280.919 135.31 280.073 135.259 279.275 135.472C278.261 135.785 277.513 136.624 276.821 137.427L275.159 139.342C274.744 139.762 274.416 140.26 274.194 140.807C274.088 141.082 274.062 141.382 274.121 141.671C274.18 141.96 274.321 142.225 274.527 142.436" fill="black"/>
<path d="M281.39 219.449C279.488 220.611 277.117 220.681 274.906 220.412C274.55 220.368 274.128 220.342 273.908 220.618C273.576 221.018 273.968 221.617 274.374 221.927C275.678 222.908 277.21 223.539 278.826 223.762C280.269 223.967 281.725 224.064 283.182 224.052C287.172 224.122 291.162 224.188 295.089 223.615C295.322 223.598 295.549 223.532 295.755 223.422C296.008 223.244 296.184 222.976 296.247 222.673C296.516 221.647 295.997 220.548 295.213 219.835C294.428 219.123 293.42 218.726 292.436 218.343L288.978 216.995C288.167 216.678 286.866 215.839 285.985 215.905C284.329 216.025 282.763 218.643 281.39 219.449Z" fill="#3F3D56"/>
<path opacity="0.05" d="M281.39 219.449C279.488 220.611 277.117 220.681 274.906 220.412C274.55 220.368 274.128 220.342 273.908 220.618C273.576 221.018 273.968 221.617 274.374 221.927C275.678 222.908 277.21 223.539 278.826 223.762C280.269 223.967 281.725 224.064 283.182 224.052C287.172 224.122 291.162 224.188 295.089 223.615C295.322 223.598 295.549 223.532 295.755 223.422C296.008 223.244 296.184 222.976 296.247 222.673C296.516 221.647 295.997 220.548 295.213 219.835C294.428 219.123 293.42 218.726 292.436 218.343L288.978 216.995C288.167 216.678 286.866 215.839 285.985 215.905C284.329 216.025 282.763 218.643 281.39 219.449Z" fill="black"/>
<path d="M283.814 173.469C282.374 175.387 280.885 177.602 281.24 179.977C281.433 181.256 282.148 182.385 282.673 183.567C283.385 185.172 283.757 186.897 284.123 188.616C284.662 191.127 285.204 193.645 285.533 196.196C285.909 199.077 284.143 207.413 283.98 210.314C283.94 211.013 283.857 211.769 283.372 212.272C283.182 212.472 282.929 212.632 282.843 212.891C282.792 213.142 282.834 213.402 282.959 213.624C283.771 215.456 285.43 216.821 287.282 217.601C289.134 218.38 293.6 219.725 295.618 219.795C295.884 219.825 296.153 219.789 296.403 219.692C296.671 219.528 296.883 219.285 297.008 218.996C298.455 216.225 297.065 206.374 297.085 203.246C297.105 200.639 297.72 198.048 297.607 195.443C297.514 193.352 296.942 191.307 296.752 189.222C296.42 185.805 297.045 182.371 297.673 178.994C298.152 176.403 298.634 173.812 299.249 171.254C299.625 169.692 300.061 168.117 300.912 166.762C301.577 165.686 302.511 164.787 303.286 163.764C305.436 160.94 306.392 157.383 305.946 153.859C305.9 153.526 300.958 155.115 300.523 155.305C298.745 156.059 297.11 157.112 295.688 158.419C294.544 159.511 293.643 160.97 292.642 162.192C291.226 163.922 289.827 165.664 288.446 167.418C286.87 169.423 285.326 171.44 283.814 173.469Z" fill="#464353"/>
<path d="M283.814 173.352C282.374 175.271 280.885 177.489 281.24 179.86C281.433 181.142 282.148 182.271 282.673 183.454C283.385 185.056 283.757 186.784 284.123 188.499C284.662 191.014 285.204 193.532 285.533 196.079C285.909 198.964 284.143 207.296 283.98 210.197C283.94 210.896 283.857 211.656 283.372 212.159C283.182 212.355 282.929 212.515 282.843 212.775C282.792 213.025 282.833 213.285 282.959 213.508C283.771 215.343 285.43 216.705 287.282 217.504C289.134 218.303 293.6 218.999 295.618 219.066C295.884 219.095 296.153 219.06 296.403 218.963C296.672 218.801 296.884 218.559 297.008 218.27C298.455 215.499 297.065 206.28 297.085 203.15C297.105 200.539 297.72 197.951 297.607 195.343C297.514 193.252 296.942 191.207 296.752 189.125C296.42 185.705 297.045 182.271 297.673 178.894C298.152 176.307 298.634 173.715 299.249 171.154C299.625 169.592 300.061 168.017 300.912 166.662C301.577 165.586 302.511 164.687 303.286 163.664C305.437 160.841 306.393 157.283 305.946 153.76C305.9 153.426 300.958 155.015 300.523 155.205C298.746 155.961 297.111 157.015 295.688 158.322C294.544 159.411 293.643 160.87 292.642 162.092C291.226 163.822 289.827 165.565 288.446 167.321C286.87 169.31 285.326 171.321 283.814 173.352Z" fill="white"/>
<path d="M267.793 131.219C272.25 131.219 275.864 127.6 275.864 123.136C275.864 118.672 272.25 115.053 267.793 115.053C263.336 115.053 259.723 118.672 259.723 123.136C259.723 127.6 263.336 131.219 267.793 131.219Z" fill="#FBBEBE"/>
<path d="M275.062 122.796C275.808 123.988 276.785 125.016 277.936 125.821C279.088 126.625 280.389 127.189 281.762 127.479L281.154 129.694C280.103 133.497 278.923 137.52 275.99 140.158C276.322 138.869 275.897 137.494 275.172 136.375C274.447 135.256 273.43 134.376 272.432 133.507L267.787 129.477C267.653 129.368 267.54 129.235 267.454 129.084C267.34 128.8 267.34 128.483 267.454 128.198C268.046 126.353 269.735 125.201 271.112 123.955C271.803 123.311 272.419 122.592 272.951 121.811C273.878 120.485 274.454 121.817 275.062 122.796Z" fill="#FBBEBE"/>
<path d="M257.163 115.01L256.98 113.491C258.254 113.824 259.464 112.739 260.279 111.616C261.093 110.494 261.848 109.172 263.088 108.702C264.595 108.136 266.191 109.035 267.63 109.794C269.242 110.69 271.011 111.267 272.841 111.493C273.133 111.503 273.422 111.55 273.702 111.633C274.64 111.966 275.085 113.145 275.222 114.214C275.358 115.283 275.322 116.419 275.784 117.371C276.116 118.094 276.735 118.63 277.114 119.343C278.111 121.254 277.147 123.869 278.188 125.744L275.601 123.369C275.365 123.153 275.032 122.926 274.77 123.11C274.563 123.256 274.547 123.572 274.464 123.826C274.214 124.565 273.29 124.785 272.622 124.492C271.953 124.199 271.464 123.562 270.959 122.983C269.815 121.631 268.452 120.442 266.856 119.866C266.156 119.604 265.409 119.494 264.664 119.543C263.918 119.593 263.192 119.8 262.533 120.152C261.326 120.835 260.442 122.427 258.962 122.483C256.934 122.56 256.089 118.777 255.151 117.281C255.494 117.023 255.736 116.651 255.833 116.232C255.93 115.814 255.877 115.374 255.683 114.99C255.82 114.933 257.133 114.777 257.163 115.01Z" fill="#464353"/>
<path d="M251.916 181.902C265.498 181.902 276.509 180.308 276.509 178.341C276.509 176.375 265.498 174.781 251.916 174.781C238.334 174.781 227.323 176.375 227.323 178.341C227.323 180.308 238.334 181.902 251.916 181.902Z" fill="#3131BD"/>
<path d="M273.074 178.515C272.641 176.66 272.372 175.031 272.372 175.031C272.372 175.031 272.472 173.013 271.567 171.497V170.991V167.261C271.825 166.584 272.14 165.93 272.508 165.306C273.173 164.134 272.508 159.838 272.508 159.838C272.508 159.838 270.025 153.78 270.626 149.936C271.228 146.093 265.526 132.871 265.526 132.871C265.561 131.596 265.74 130.329 266.061 129.094C266.122 128.835 266.146 128.568 266.134 128.302C266.134 128.268 266.134 128.238 266.134 128.205C266.134 128.172 266.134 128.225 266.134 128.235C266.048 125.701 264.046 120.951 264.046 120.951L264.315 111.899C264.315 111.899 265.592 106.571 263.511 99.3935C262.782 96.8924 262.317 94.8908 262.021 93.3455C261.988 93.1723 261.954 93.0124 261.928 92.8426C266.214 92.1765 269.489 91.6436 269.489 91.6436C269.489 91.6436 267.002 81.2227 265.323 79.3976C263.644 77.5725 262.3 71.8408 262.3 71.8408C262.3 71.8408 261.426 64.4839 262.839 62.3324C264.252 60.181 264.452 56.4709 264.452 56.4709C264.452 56.4709 267.674 54.1396 268.079 53.0838C268.485 52.0281 269.153 49.6968 269.153 48.4612C269.153 47.2256 268.751 46.1299 268.884 45.4638C269.017 44.7977 267.943 42.3365 268.482 41.1642C268.621 40.8041 268.693 40.4214 268.695 40.0352C268.696 40.0241 268.696 40.0129 268.695 40.0019C268.699 38.976 268.605 37.9521 268.412 36.9445C267.48 36.1562 266.392 35.574 265.22 35.236L265.15 34.9563L264.967 34.2236C264.865 34.156 264.76 34.0937 264.651 34.0371V33.7706L264.621 32.7115L265.127 30.3336C266.124 26.1972 260.608 25.5811 260.608 25.5811C260.273 24.9466 259.717 24.458 259.045 24.2089C257.938 23.8193 258.862 30.4302 259.377 30.8698C259.767 31.2029 260.97 33.2611 261.552 34.2802L261.645 34.4467C261.554 34.5287 261.47 34.6178 261.392 34.7131L261.602 36.1486L261.635 36.3684C261.27 36.8231 260.973 37.3292 260.754 37.8704C260.754 37.8704 261.752 38.9761 261.562 40.2017C261.373 41.4273 261.871 42.9826 261.895 43.0659C261.835 42.9959 261.126 42.2299 260.418 42.4164C259.71 42.6029 257.732 43.1991 257.732 43.1991C257.732 43.1991 256.255 43.4589 256.401 43.7852C256.548 44.1116 255.404 45.5437 255.404 45.5437L251.434 41.7737C251.394 41.6604 251.351 41.5472 251.317 41.4406C251.155 40.897 251.044 40.3396 250.985 39.7754C251.417 39.6724 251.842 39.5377 252.255 39.3724C252.672 39.229 253.049 38.9867 253.352 38.6664C253.755 38.1901 253.831 37.544 253.994 36.9512C254.307 35.7922 254.992 34.7631 255.467 33.6607C256.272 31.798 256.532 29.7442 256.215 27.7392C256.154 27.1213 255.946 26.5273 255.607 26.0074C254.958 25.1148 253.781 24.7518 252.927 24.0391C252.072 23.3264 251.52 22.2373 250.523 21.7078C249.622 21.2249 248.528 21.2815 247.51 21.448C245.523 21.7762 243.614 22.4719 241.881 23.4996C241.302 23.8326 240.664 24.2422 239.999 24.119C239.427 24.0158 239.001 23.5595 238.642 23.1199C238.646 23.1017 238.652 23.0839 238.659 23.0666C238.642 23.0504 238.628 23.0325 238.615 23.0133C238.195 23.9486 237.983 24.9649 237.997 25.9907C237.997 26.1506 237.997 26.3238 238.017 26.467V26.6335C238.017 26.6801 238.017 26.7268 238.017 26.7701C238.017 26.841 238.007 26.9117 237.987 26.9799C237.903 27.1836 237.776 27.3666 237.614 27.5161C237.492 27.6549 237.381 27.803 237.282 27.959C237.282 27.9057 237.315 27.8524 237.335 27.7958C237.081 28.1667 236.938 28.6022 236.923 29.0514C236.904 29.3784 237.011 29.7002 237.222 29.9506C237.421 30.1442 237.638 30.3182 237.87 30.4702C237.791 30.9098 237.751 31.3556 237.751 31.8023C237.758 33.1267 238.107 34.4267 238.763 35.5766C239.419 36.7266 240.36 37.6876 241.495 38.3666C241.541 38.4765 241.585 38.5898 241.628 38.6997C242.137 40.0318 242.519 41.5971 242.349 43.0292C242.349 43.1325 242.319 43.239 242.303 43.3423C242.286 43.4455 242.203 43.4522 242.16 43.5088C242.16 43.5088 235.599 43.5754 234.057 42.1766C232.514 40.7779 230.159 45.597 230.159 45.597C230.159 45.597 227.809 46.0533 227.336 45.597C226.864 45.1407 224.114 45.5337 224.114 45.5337C222.988 44.5302 221.522 43.9943 220.014 44.035C219.101 43.3399 218.094 42.7792 217.022 42.3698L216.949 42.3432C216.476 42.1705 215.97 42.1067 215.469 42.1567C215.469 42.1567 212.244 39.4923 211.303 38.0536C210.362 36.6148 205.883 31.3028 205.863 31.2795V31.023L205.813 30.2504C205.68 30.2713 205.545 30.2824 205.41 30.2837C205.387 30.2071 205.354 30.1171 205.321 30.0139C205.063 29.2602 204.745 28.5285 204.37 27.8258C204.37 27.8258 204.37 26.85 204.652 26.6035C204.935 26.3571 204.536 22.7769 204.536 22.7769C204.536 22.7769 201.63 15.9728 199.026 21.0517C199.026 21.0517 194.105 24.3388 198.235 28.1688C198.235 28.1688 199.897 28.9681 200.117 29.6009C200.27 30.0106 200.828 31.1596 201.204 31.9322L201.374 32.2653L201.327 32.3052L201.387 32.9447L201.414 33.1911C200.636 33.6341 200.107 34.0737 200.237 34.4034C200.466 34.9676 200.623 35.5584 200.705 36.1619C200.705 36.1619 206.418 43.329 207.156 46.3896C207.156 46.3896 222.475 55.5084 227.513 56.1578L226.622 60.7039C226.492 61.9374 226.425 63.1769 226.422 64.4173C226.489 65.3931 225.817 69.8226 225.817 69.8226C225.817 69.8226 224.942 76.3369 224.204 77.2495C223.466 78.162 223.599 82.0686 223.599 82.0686C223.425 83.9388 223.091 85.7906 222.601 87.6038C221.863 90.0783 222.399 93.1423 222.399 93.1423C222.399 93.1423 219.848 99.0039 225.96 95.0307C225.96 95.0307 228.952 94.8441 232.417 94.7243C232.417 94.8375 232.417 94.954 232.417 95.0573C232.417 95.5036 232.417 95.9865 232.394 96.4927C232.347 99.8498 232.327 104.486 232.48 107.976C232.75 114.164 234.632 126.41 234.632 126.41V132.575C234.51 133.153 234.45 133.742 234.452 134.333C234.412 136.502 234.989 138.638 236.115 140.491L236.587 144.594C236.587 144.594 237.691 147.299 237.711 148.924C237.707 149.055 237.691 149.185 237.664 149.313C237.621 149.52 237.603 149.732 237.611 149.943C237.548 151.808 238.668 156.271 238.668 156.271C238.668 156.271 238.735 160.763 239.407 161.027C239.982 161.25 238.639 163.614 238.24 164.294C238.229 164.252 238.221 164.21 238.216 164.167L238.133 164.3C237.995 164.664 237.924 165.05 237.924 165.439C237.886 165.746 237.936 166.057 238.068 166.337C238.199 166.616 238.408 166.853 238.668 167.018C239.945 167.801 240.63 168.45 239.546 168.71C239.148 168.772 238.752 168.855 238.363 168.96C238.363 168.91 238.323 168.856 238.306 168.81C238.153 168.87 238.026 168.981 237.945 169.124C237.864 169.267 237.836 169.434 237.864 169.596C237.874 170.124 238.01 170.642 238.26 171.108C239.334 173.519 240.078 174.438 240.078 174.438L240.594 174.382C240.518 174.579 240.417 174.766 240.294 174.938C240.098 175.217 239.838 175.445 239.536 175.604C239.255 175.773 238.941 175.88 238.615 175.92C238.251 175.932 237.894 176.021 237.566 176.18C237.238 176.34 236.948 176.567 236.713 176.846C236.048 177.715 235.623 178.898 236.946 179.937L241.751 181.602C241.751 181.602 250.017 182.678 249.578 180.819C249.139 178.961 248.873 177.336 248.873 177.336C248.909 176.201 248.681 175.074 248.208 174.042C248.122 173.874 248.024 173.711 247.916 173.556L248.208 173.526C248.208 173.526 248.813 169.419 249.618 168.64C249.804 168.46 249.848 168.307 249.804 168.214C249.888 167.99 249.675 167.861 249.405 167.784L249.346 167.947C249.082 167.89 248.814 167.86 248.544 167.857C248.544 167.857 248.275 165.709 249.149 164.926C249.22 164.837 249.271 164.734 249.301 164.624C249.33 164.514 249.336 164.4 249.319 164.287C249.326 163.992 249.294 163.698 249.226 163.411C249.217 163.43 249.207 163.447 249.196 163.464C248.757 161.513 247.267 158.412 247.267 158.412C247.267 158.412 247.201 156.461 247.739 155.678C248.278 154.895 247.67 145.06 247.67 145.06C247.67 145.06 247.872 140.308 247.267 138.093C246.662 135.878 248.005 133.271 248.005 133.271C248.005 133.271 248.005 133.221 248.005 133.131V133.098L247.929 132.348C247.927 132.364 247.927 132.379 247.929 132.395C247.793 131.136 247.537 128.855 247.347 127.802C247.078 126.303 247.417 119.143 247.417 119.143L248.624 116.079L250.775 121.358L253.06 128.392C253.06 128.392 254.19 129.877 254.217 131.389C254.217 131.462 254.217 131.536 254.217 131.609C254.198 131.765 254.19 131.921 254.19 132.078C254.15 132.967 254.393 133.846 254.885 134.586C254.885 134.586 255.49 137.917 256.431 138.753C257.372 139.589 257.372 141.227 257.372 141.227C257.372 141.227 258.513 146.05 259.035 146.889C259.487 147.602 259.51 149.553 259.507 150.163C259.507 150.273 259.507 150.336 259.507 150.336C259.507 150.336 259.667 152.061 259.66 153.506C259.66 153.686 259.66 153.859 259.66 154.023C259.662 154.01 259.662 153.998 259.66 153.986C259.66 154.381 259.613 154.774 259.52 155.158L259.5 155.225C259.5 155.142 259.5 155.062 259.524 154.982C259.29 155.963 259.178 156.97 259.191 157.979C259.161 159.711 259.424 161.763 260.471 162.975C262.287 165.06 263.427 164.8 263.427 164.8C263.427 164.8 262.556 167.404 261.479 167.927C261.438 167.946 261.4 167.971 261.366 168C261.366 167.947 261.346 167.897 261.339 167.847C261.219 167.977 261.128 168.131 261.07 168.298C261.013 168.466 260.991 168.643 261.007 168.82C260.93 169.965 261.652 171.817 262.337 172.68C262.591 172.929 262.903 173.112 263.245 173.213C263.191 173.251 263.134 173.285 263.075 173.316C262.955 173.382 262.832 173.441 262.706 173.492C262.531 173.567 262.346 173.615 262.157 173.636C261.793 173.645 261.434 173.733 261.106 173.893C260.778 174.052 260.488 174.28 260.255 174.561C259.59 175.427 259.165 176.61 260.488 177.649L265.293 179.314C265.293 179.314 273.506 180.37 273.074 178.515Z" fill="url(#paint0_linear)"/>
<path d="M241.515 181.592L236.86 179.927C235.576 178.888 235.985 177.705 236.634 176.836C236.857 176.559 237.137 176.333 237.454 176.173C237.772 176.013 238.12 175.924 238.476 175.91C238.791 175.87 239.094 175.762 239.363 175.594C239.659 175.433 239.912 175.205 240.102 174.928C240.441 174.388 240.624 173.764 240.63 173.126C240.63 173.126 245.738 171.627 247.134 173.126C247.384 173.397 247.592 173.704 247.753 174.035C248.217 175.07 248.444 176.195 248.418 177.329C248.418 177.329 248.677 178.954 249.099 180.813C249.522 182.671 241.515 181.592 241.515 181.592Z" fill="#2D293D"/>
<path d="M264.272 179.294L259.617 177.629C258.333 176.59 258.742 175.407 259.391 174.541C259.612 174.263 259.891 174.036 260.209 173.876C260.526 173.717 260.875 173.628 261.23 173.616C261.414 173.597 261.593 173.548 261.762 173.472C261.885 173.42 262.005 173.361 262.121 173.296C263.421 172.58 263.388 170.821 263.388 170.821C263.388 170.821 268.492 169.323 269.892 170.821C270.079 171.024 270.243 171.248 270.38 171.487C271.255 173.003 271.159 175.024 271.159 175.024C271.159 175.024 271.418 176.653 271.824 178.508C272.229 180.363 264.272 179.294 264.272 179.294Z" fill="#2D293D"/>
<path opacity="0.1" d="M247.138 173.123C247.387 173.394 247.595 173.7 247.756 174.032L240.108 174.921C240.448 174.381 240.631 173.757 240.637 173.119C240.637 173.119 245.741 171.624 247.138 173.123Z" fill="black"/>
<path opacity="0.1" d="M270.387 171.494V172.93C269.197 174.891 263.441 174.462 261.768 173.479C261.891 173.427 262.011 173.368 262.127 173.303C263.428 172.586 263.394 170.828 263.394 170.828C263.394 170.828 268.498 169.329 269.898 170.828C270.086 171.031 270.25 171.254 270.387 171.494Z" fill="black"/>
<path d="M271.295 165.306C270.939 165.932 270.635 166.586 270.387 167.261V172.407C269.084 174.555 262.324 173.839 261.409 172.666C260.495 171.494 259.54 168.443 260.568 167.914C261.595 167.384 262.453 164.787 262.453 164.787C262.453 164.787 261.346 165.046 259.59 162.962C257.835 160.877 258.357 156.254 258.683 155.148C259.008 154.043 258.683 150.329 258.683 150.329C258.683 150.329 258.749 147.721 258.23 146.876C257.712 146.03 256.604 141.214 256.604 141.214C256.604 141.214 256.604 139.585 255.693 138.739C254.782 137.893 254.197 134.57 254.197 134.57C253.664 133.739 253.435 132.749 253.549 131.769C253.741 130.14 252.441 128.382 252.441 128.382L250.23 121.344L248.149 116.069L246.978 119.13C246.978 119.13 246.646 126.293 246.915 127.789C247.184 129.284 247.58 133.261 247.58 133.261C247.58 133.261 246.28 135.865 246.865 138.08C247.45 140.295 247.237 145.054 247.237 145.054C247.237 145.054 247.823 154.885 247.301 155.668C246.779 156.451 246.845 158.405 246.845 158.405C246.845 158.405 249.505 164.134 248.667 164.916C247.829 165.699 248.082 167.847 248.082 167.847C248.082 167.847 249.901 167.847 249.123 168.63C248.345 169.413 247.756 173.516 247.756 173.516L239.892 174.438C239.892 174.438 239.174 173.529 238.133 171.108C237.092 168.687 238.326 168.96 239.373 168.697C240.421 168.433 239.759 167.787 238.522 167.005C237.285 166.222 238.003 164.464 238.003 164.464C238.003 164.464 239.889 161.273 239.237 161.013C238.585 160.753 238.522 156.257 238.522 156.257C238.522 156.257 237.222 150.929 237.548 149.483C237.874 148.038 236.507 144.601 236.507 144.601L236.052 140.498C234.66 138.169 234.153 135.417 234.622 132.744V126.417C234.622 126.417 232.8 114.174 232.54 107.986C232.374 104.023 232.421 98.6142 232.474 95.2405C232.507 93.3488 232.54 92.0932 232.54 92.0932L260.631 89.1624C260.631 89.1624 260.605 90.4613 261.14 93.3421C261.429 94.8874 261.878 96.889 262.583 99.3902C264.598 106.554 263.364 111.893 263.364 111.893L263.102 120.948C263.102 120.948 265.572 127.003 265.054 129.088C264.74 130.326 264.564 131.594 264.528 132.871C264.528 132.871 270.055 146.093 269.469 149.936C268.884 153.78 271.288 159.838 271.288 159.838C271.288 159.838 271.947 164.134 271.295 165.306Z" fill="white"/>
<path opacity="0.05" d="M255.234 131.376L263.787 130.233C263.787 130.233 258.942 135.186 255.234 131.376Z" fill="black"/>
<path opacity="0.1" d="M262.55 121.864C262.55 121.864 262.842 124.895 260.99 126.034C260.99 126.034 264.305 125.514 262.55 121.864Z" fill="black"/>
<path opacity="0.1" d="M262.024 112.226C262.024 112.226 254.875 118.121 252.275 117.631C249.675 117.141 262.024 112.226 262.024 112.226Z" fill="black"/>
<path opacity="0.1" d="M244.634 134.14C244.634 134.14 239.204 135.376 239.041 137.56C238.878 139.745 244.634 134.14 244.634 134.14Z" fill="black"/>
<path opacity="0.05" d="M245.827 161.303C245.827 161.303 238.156 162.735 240.334 163.711C242.512 164.687 246.09 165.469 246.09 165.469C246.09 165.469 248.567 165.599 245.827 161.303Z" fill="black"/>
<g opacity="0.05">
<path opacity="0.05" d="M238.785 165.263C238.592 165.142 238.429 164.98 238.307 164.787C238.186 164.594 238.109 164.377 238.083 164.151L238.004 164.287C238.004 164.287 237.289 166.046 238.526 166.825C238.665 166.915 238.802 167.005 238.925 167.091C239.154 167.048 239.4 167.015 239.636 166.955C240.684 166.695 240.022 166.046 238.785 165.263Z" fill="black"/>
<path opacity="0.05" d="M248.667 164.74C248.88 164.547 248.873 164.047 248.744 163.408C248.411 163.911 248.315 164.697 248.308 165.293C248.389 165.086 248.511 164.898 248.667 164.74Z" fill="black"/>
<path opacity="0.05" d="M247.487 132.338C247.204 133.109 247.03 133.914 246.968 134.733C247.116 134.167 247.316 133.617 247.563 133.088L247.487 132.338Z" fill="black"/>
<path opacity="0.05" d="M265.057 128.921C265.108 128.687 265.131 128.448 265.127 128.208C265.03 128.695 264.964 129.144 264.914 129.541C264.957 129.337 265.004 129.144 265.057 128.921Z" fill="black"/>
<path opacity="0.05" d="M247.304 155.495C247.41 155.335 247.47 154.795 247.497 154.046C247.256 154.626 247.129 155.246 247.121 155.874C247.167 155.741 247.228 155.613 247.304 155.495Z" fill="black"/>
<path opacity="0.05" d="M248.9 167.777C248.497 169.084 248.198 170.42 248.006 171.774L240.142 172.683C240.142 172.683 239.423 171.774 238.383 169.353C238.299 169.166 238.224 168.974 238.16 168.78C237.688 168.996 237.495 169.486 238.12 170.915C239.161 173.326 239.882 174.245 239.882 174.245L247.746 173.332C247.746 173.332 248.332 169.229 249.11 168.447C249.509 168.07 249.263 167.874 248.9 167.777Z" fill="black"/>
<path opacity="0.05" d="M238.526 156.081C238.526 156.081 238.589 160.574 239.241 160.833C239.573 160.091 239.789 159.385 239.497 159.268C238.832 159.008 238.782 154.512 238.782 154.512C238.782 154.512 237.482 149.184 237.807 147.738C238.133 146.293 236.767 142.856 236.767 142.856L236.311 138.753C234.92 136.424 234.412 133.672 234.881 130.999V124.672C234.881 124.672 233.059 112.429 232.8 106.241C232.633 102.278 232.68 96.869 232.733 93.4953C232.733 92.8858 232.753 92.3463 232.763 91.89L232.54 91.9134C232.54 91.9134 232.504 93.1656 232.474 95.0606C232.421 98.4343 232.371 103.843 232.54 107.803C232.8 113.991 234.619 126.237 234.619 126.237V132.565C234.152 135.236 234.661 137.987 236.052 140.315L236.504 144.418C236.504 144.418 237.871 147.868 237.545 149.303C237.219 150.739 238.526 156.081 238.526 156.081Z" fill="black"/>
<path opacity="0.05" d="M261.675 170.928C261.036 170.002 260.61 168.945 260.428 167.834C259.627 168.56 260.548 171.378 261.426 172.497C262.334 173.669 269.097 174.385 270.404 172.233V170.995C268.631 172.736 262.533 172.037 261.675 170.928Z" fill="black"/>
<path opacity="0.05" d="M271.558 163.568C271.201 164.193 270.896 164.847 270.646 165.523V166.445C270.796 166.112 271.006 165.666 271.312 165.14C271.517 164.627 271.615 164.077 271.597 163.524C271.597 163.524 271.568 163.554 271.558 163.568Z" fill="black"/>
<path opacity="0.05" d="M262.074 164.597C262.322 164.095 262.536 163.578 262.716 163.048C262.716 163.048 261.609 163.308 259.853 161.223C258.576 159.708 258.503 156.844 258.686 154.972C258.353 156.081 257.838 160.704 259.594 162.788C260.741 164.151 261.609 164.51 262.074 164.597Z" fill="black"/>
<path opacity="0.05" d="M258.683 150.153C258.797 151.436 258.841 152.725 258.812 154.013C258.845 153.809 258.889 153.608 258.945 153.41C259.278 152.301 258.945 148.591 258.945 148.591C258.945 148.591 259.012 145.983 258.49 145.137C257.968 144.291 256.88 139.469 256.88 139.469C256.88 139.469 256.88 137.84 255.969 136.994C255.058 136.148 254.473 132.824 254.473 132.824C253.935 131.996 253.701 131.006 253.808 130.024C254.004 128.395 252.704 126.636 252.704 126.636L250.493 119.603L248.411 114.327L247.237 117.391C247.237 117.391 247.237 117.778 247.198 118.39L248.148 115.902L250.23 121.168L252.441 128.202C252.441 128.202 253.741 129.96 253.545 131.589C253.438 132.571 253.673 133.561 254.21 134.39C254.21 134.39 254.795 137.72 255.707 138.559C256.618 139.399 256.614 141.034 256.614 141.034C256.614 141.034 257.722 145.853 258.24 146.696C258.759 147.538 258.683 150.153 258.683 150.153Z" fill="black"/>
</g>
<path d="M264.143 30.3236L263.654 32.7016L263.684 33.7606L263.704 34.54L260.99 34.8197L260.688 34.2569C260.126 33.2378 258.959 31.1662 258.583 30.8465C258.081 30.4269 257.186 23.8126 258.25 24.2056C258.905 24.459 259.443 24.9467 259.76 25.5744C259.76 25.5744 265.103 26.1872 264.143 30.3236Z" fill="#FFCDD3"/>
<path opacity="0.1" d="M263.704 34.54L260.99 34.8197L260.688 34.2569C261.053 33.8407 261.55 33.5642 262.096 33.4743C262.642 33.3844 263.201 33.4868 263.68 33.764L263.704 34.54Z" fill="black"/>
<path d="M264.388 35.8288L260.811 36.6581L260.734 36.1252L260.531 34.6898C260.531 34.6898 261.948 32.7981 263.996 34.2169L264.176 34.9462L264.388 35.8288Z" fill="#FF70A3"/>
<path d="M206.431 30.5834L202.611 32.6349L202.278 31.9156C201.916 31.1529 201.374 30.0039 201.224 29.5843C200.998 28.9515 199.405 28.1522 199.405 28.1522C195.415 24.3255 200.17 21.035 200.17 21.035C202.691 15.9561 205.49 22.7602 205.49 22.7602C205.49 22.7602 205.883 26.3471 205.607 26.5869C205.331 26.8267 205.331 27.8091 205.331 27.8091C205.695 28.513 206.003 29.2447 206.252 29.9972C206.368 30.3603 206.431 30.5834 206.431 30.5834Z" fill="#FFCDD3"/>
<path opacity="0.1" d="M206.431 30.5834L202.611 32.6349L202.278 31.9156C202.817 31.4626 204.729 29.9173 205.357 29.9806C205.657 30.0181 205.96 30.0259 206.262 30.0039C206.368 30.3603 206.431 30.5834 206.431 30.5834Z" fill="black"/>
<path d="M206.82 31.7391L202.528 33.8572L202.441 32.9347L202.381 32.2953C202.381 32.2953 204.869 30.1604 205.603 30.2437C205.975 30.2976 206.352 30.2976 206.724 30.2437L206.774 31.0164L206.82 31.7391Z" fill="#FF70A3"/>
<path d="M253.738 46.1199C253.738 46.1199 235.024 48.2347 238.522 47.0957C240.956 46.2998 241.924 44.7644 242.127 43.0326C242.293 41.5905 241.921 40.0352 241.432 38.703C240.992 37.5212 240.435 36.3865 239.769 35.316C239.769 35.316 254.067 27.4361 251.211 34.5999C250.771 35.6835 250.497 36.8278 250.4 37.9936C250.314 39.1522 250.439 40.3168 250.769 41.4306C251.308 43.2379 252.336 44.8608 253.738 46.1199Z" fill="#FFCDD3"/>
<path opacity="0.1" d="M251.201 34.5899C250.76 35.6735 250.487 36.8178 250.39 37.9836C249.043 39.1193 247.567 39.0427 245.668 39.0427C244.212 39.0427 242.596 39.3957 241.432 38.693C240.992 37.5112 240.435 36.3765 239.769 35.3059C239.769 35.3059 254.064 27.4261 251.201 34.5899Z" fill="black"/>
<path d="M245.415 39.5423C249.689 39.5423 253.153 36.0725 253.153 31.7923C253.153 27.5122 249.689 24.0424 245.415 24.0424C241.142 24.0424 237.678 27.5122 237.678 31.7923C237.678 36.0725 241.142 39.5423 245.415 39.5423Z" fill="#FFCDD3"/>
<path opacity="0.1" d="M253.738 46.1198C253.738 46.1198 235.024 48.2347 238.522 47.0957C240.956 46.2997 241.924 44.7644 242.127 43.0325C243.058 42.0334 244.93 41.2907 246.117 40.9044C247.214 40.5347 248.399 40.515 249.509 40.8478C249.945 40.9794 250.36 41.1722 250.742 41.4206C251.287 43.2345 252.324 44.8613 253.738 46.1198Z" fill="black"/>
<path opacity="0.1" d="M264.388 35.8288L260.811 36.6581L260.734 36.1252C261.117 35.5982 261.653 35.2022 262.269 34.9912C262.885 34.7803 263.551 34.7646 264.176 34.9462L264.388 35.8288Z" fill="black"/>
<path opacity="0.1" d="M206.82 31.739L202.528 33.8572L202.441 32.9347C203.832 32.1859 205.277 31.5435 206.764 31.013L206.82 31.739Z" fill="black"/>
<path opacity="0.1" d="M261.14 93.3488C253.888 94.5078 243.58 95.9865 241.944 95.4869C240.584 95.0739 236.248 95.1172 232.474 95.2471C232.507 93.3554 232.54 92.0998 232.54 92.0998L260.631 89.1691C260.631 89.1691 260.605 90.4679 261.14 93.3488Z" fill="black"/>
<path d="M268.369 91.6436C268.369 91.6436 244.504 95.7467 241.944 94.974C239.384 94.2014 226.233 95.0373 226.233 95.0373C220.314 99.0105 222.784 93.149 222.784 93.149C222.784 93.149 222.266 90.0883 222.981 87.6138C223.461 85.797 223.789 83.9433 223.962 82.0719C223.962 82.0719 223.832 78.162 224.547 77.2495C225.262 76.3369 226.11 69.8259 226.11 69.8259C226.11 69.8259 226.758 65.3964 226.695 64.4206C226.632 63.4448 226.888 60.7072 226.888 60.7072L227.736 56.1478C222.858 55.4984 208.031 46.3797 208.031 46.3797C207.316 43.319 201.789 36.1552 201.789 36.1552C201.709 35.5528 201.556 34.9624 201.334 34.3967C200.945 33.3543 206.797 31.2695 206.797 31.2695C206.797 31.2695 211.153 36.5982 212.064 38.0436C212.975 39.489 216.094 42.1467 216.094 42.1467C216.579 42.0968 217.068 42.1606 217.524 42.3332L217.601 42.3565C218.646 42.7675 219.626 43.3284 220.51 44.0217C221.976 43.9869 223.399 44.5243 224.477 45.5204C224.477 45.5204 227.137 45.1274 227.599 45.5837C228.061 46.04 230.329 45.5837 230.329 45.5837C230.329 45.5837 232.604 40.7645 234.1 42.1633C235.596 43.5621 241.944 43.4955 241.944 43.4955C242.788 42.3698 244.847 41.5638 246.134 41.1642C247.231 40.7961 248.416 40.7763 249.525 41.1076C250.004 41.2506 250.454 41.476 250.855 41.7737L254.716 45.5504C254.716 45.5504 255.82 44.115 255.69 43.7919C255.56 43.4689 256.99 43.2058 256.99 43.2058C256.99 43.2058 258.875 42.6196 259.59 42.4231C260.305 42.2266 260.96 43.0026 261.02 43.0725C260.997 42.9893 260.508 41.4073 260.688 40.2084C260.867 39.0094 259.906 37.8771 259.906 37.8771C262.181 32.2753 267.318 36.9645 267.318 36.9645C267.318 36.9645 267.903 40.0252 267.384 41.1975C266.866 42.3698 267.903 44.8443 267.774 45.4971C267.644 46.1499 268.036 47.2556 268.036 48.4945C268.036 49.7334 267.371 52.0747 266.995 53.1171C266.62 54.1596 263.484 56.5042 263.484 56.5042C263.484 56.5042 263.288 60.2176 261.921 62.3657C260.555 64.5139 261.413 71.8608 261.413 71.8608C261.413 71.8608 262.713 77.5925 264.339 79.4176C265.965 81.2427 268.369 91.6436 268.369 91.6436Z" fill="#1E1E99"/>
<path opacity="0.1" d="M233.581 48.7875C233.581 48.7875 232.866 46.6394 232.214 46.4562C231.567 46.2179 230.937 45.9352 230.329 45.6103L230.748 44.8077C230.748 44.8077 233.189 45.4738 233.581 46.1965C233.973 46.9192 233.581 48.7875 233.581 48.7875Z" fill="black"/>
<path opacity="0.1" d="M220.51 44.035C220.38 44.7011 214.591 45.2706 214.591 45.2706L217.517 42.3332L217.59 42.3598C218.64 42.773 219.623 43.3374 220.51 44.035Z" fill="black"/>
<path d="M203.765 35.6157C204.051 35.6157 204.283 35.3831 204.283 35.0961C204.283 34.8092 204.051 34.5766 203.765 34.5766C203.478 34.5766 203.246 34.8092 203.246 35.0961C203.246 35.3831 203.478 35.6157 203.765 35.6157Z" fill="#575988"/>
<path d="M204.43 36.6581C204.716 36.6581 204.948 36.4255 204.948 36.1386C204.948 35.8516 204.716 35.619 204.43 35.619C204.143 35.619 203.911 35.8516 203.911 36.1386C203.911 36.4255 204.143 36.6581 204.43 36.6581Z" fill="#575988"/>
<path d="M205.081 37.6206C205.368 37.6206 205.6 37.388 205.6 37.1011C205.6 36.8141 205.368 36.5815 205.081 36.5815C204.795 36.5815 204.563 36.8141 204.563 37.1011C204.563 37.388 204.795 37.6206 205.081 37.6206Z" fill="#575988"/>
<path d="M205.763 38.6597C206.049 38.6597 206.282 38.4271 206.282 38.1402C206.282 37.8532 206.049 37.6206 205.763 37.6206C205.476 37.6206 205.244 37.8532 205.244 38.1402C205.244 38.4271 205.476 38.6597 205.763 38.6597Z" fill="#575988"/>
<path d="M267.059 38.5065C267.292 38.5065 267.481 38.3171 267.481 38.0835C267.481 37.8499 267.292 37.6606 267.059 37.6606C266.825 37.6606 266.636 37.8499 266.636 38.0835C266.636 38.3171 266.825 38.5065 267.059 38.5065Z" fill="#575988"/>
<path d="M267.125 39.469C267.358 39.469 267.547 39.2796 267.547 39.046C267.547 38.8124 267.358 38.623 267.125 38.623C266.892 38.623 266.703 38.8124 266.703 39.046C266.703 39.2796 266.892 39.469 267.125 39.469Z" fill="#575988"/>
<path d="M267.182 40.4281C267.415 40.4281 267.604 40.2388 267.604 40.0052C267.604 39.7716 267.415 39.5822 267.182 39.5822C266.948 39.5822 266.759 39.7716 266.759 40.0052C266.759 40.2388 266.948 40.4281 267.182 40.4281Z" fill="#575988"/>
<path opacity="0.1" d="M233.604 66.4389C233.541 66.3623 248.202 84.9028 259.58 74.1888C259.59 74.1921 241.611 76.6333 233.604 66.4389Z" fill="black"/>
<path opacity="0.1" d="M225.192 76.0771C225.192 76.0771 233.964 76.3169 234.881 78.8447V81.4758C234.631 81.6146 234.351 81.6874 234.065 81.6874C233.779 81.6874 233.498 81.6146 233.249 81.4758C232.364 80.9962 227.061 78.2985 225.192 79.5974V76.0771Z" fill="black"/>
<path d="M225.355 76.0771C225.355 76.0771 233.744 76.3069 234.622 78.7182V81.2226C234.383 81.3556 234.114 81.4254 233.841 81.4254C233.567 81.4254 233.298 81.3556 233.059 81.2226C232.215 80.7697 227.144 78.1953 225.355 79.4342V76.0771Z" fill="#1B1B8A"/>
<path opacity="0.1" d="M229.98 57.0004C230.876 59.0781 232.018 61.0404 233.382 62.8453C234.864 64.8403 236.661 66.5804 238.702 67.9975C238.702 67.9975 230.126 58.206 229.98 57.0004Z" fill="black"/>
<path opacity="0.1" d="M227.11 46.7926C227.11 46.7926 228.573 53.1204 232.344 55.2686L227.11 46.7926Z" fill="black"/>
<path opacity="0.1" d="M224.866 47.4321C224.829 47.3155 223.566 52.4277 229.727 55.2686C229.727 55.2686 227.11 54.3793 224.866 47.4321Z" fill="black"/>
<path opacity="0.1" d="M263.168 43.1891C263.072 43.1891 266.207 45.1873 267.062 46.1199C267.062 46.1199 265.02 43.0559 263.168 43.1891Z" fill="black"/>
<path d="M243.324 38.8162C243.325 38.9853 243.361 39.1523 243.43 39.3066C243.499 39.461 243.599 39.5994 243.724 39.713C243.849 39.8266 243.996 39.913 244.156 39.9667C244.316 40.0205 244.486 40.0404 244.654 40.0252C247.011 40.1717 249.469 40.275 251.637 39.3591C252.043 39.2137 252.408 38.9714 252.701 38.653C253.086 38.1768 253.163 37.5307 253.319 36.9379C253.625 35.7789 254.277 34.7498 254.746 33.6474C255.539 31.7849 255.805 29.7396 255.514 27.7359C255.452 27.1216 255.25 26.53 254.922 26.0074C254.297 25.1115 253.156 24.7485 252.328 24.0357C251.5 23.323 250.968 22.234 250.001 21.7044C249.129 21.2182 248.062 21.2781 247.081 21.4447C245.152 21.7728 243.303 22.4681 241.635 23.4929C241.073 23.8259 240.458 24.2356 239.812 24.1124C239.247 24.0058 238.835 23.5295 238.482 23.0832C238.029 24.149 237.838 25.3085 237.927 26.4636C237.952 26.6331 237.946 26.8057 237.91 26.9732C237.829 27.1758 237.706 27.3586 237.548 27.5094C236.966 28.1755 236.604 29.2579 237.179 29.9439C237.428 30.2404 237.814 30.4035 238.057 30.7066C238.492 31.2495 238.346 32.0388 238.336 32.7315C238.312 32.9734 238.373 33.2161 238.509 33.4176C238.635 33.535 238.789 33.6179 238.956 33.6582C239.123 33.6984 239.298 33.6947 239.463 33.6474C239.793 33.548 240.139 33.5152 240.481 33.5508C240.841 33.6682 241.153 33.9026 241.365 34.2169C242.439 35.619 242.865 37.1443 243.324 38.8162Z" fill="#2D293D"/>
<g opacity="0.1">
<path opacity="0.1" d="M252.977 38.0635C252.684 38.3819 252.319 38.6242 251.912 38.7696C249.731 39.6788 247.277 39.5756 244.93 39.4357C244.678 39.4382 244.428 39.3823 244.202 39.2725C243.842 39.0627 243.706 38.623 243.596 38.2234C243.137 36.5582 242.715 35.0295 241.625 33.6407C241.414 33.3204 241.103 33.08 240.74 32.958C240.398 32.9256 240.053 32.9584 239.723 33.0546C239.557 33.1023 239.383 33.1066 239.216 33.0669C239.048 33.0272 238.894 32.945 238.768 32.8281C238.633 32.6266 238.571 32.3839 238.595 32.142C238.595 31.4426 238.752 30.66 238.316 30.1171C238.073 29.814 237.688 29.6509 237.438 29.3511C237.276 29.1301 237.176 28.8691 237.149 28.5958C237.123 28.3225 237.171 28.0472 237.289 27.7991C236.873 28.4652 236.697 29.3012 237.179 29.874C237.428 30.1704 237.814 30.3336 238.057 30.6367C238.492 31.1829 238.346 31.9688 238.336 32.6616C238.31 32.9031 238.37 33.1459 238.506 33.3476C238.632 33.4657 238.786 33.5489 238.954 33.5891C239.122 33.6294 239.297 33.6254 239.463 33.5774C239.793 33.4781 240.138 33.4452 240.481 33.4809C240.841 33.5983 241.152 33.8326 241.365 34.1469C242.452 35.5357 242.878 37.0611 243.337 38.733C243.391 39.1444 243.596 39.5209 243.912 39.7887C244.14 39.8987 244.391 39.9535 244.644 39.9486C247.001 40.0951 249.459 40.2017 251.627 39.2825C252.034 39.1381 252.399 38.8956 252.691 38.5764C252.837 38.3888 252.95 38.1769 253.023 37.9503C253.026 37.9936 253.003 38.0302 252.977 38.0635Z" fill="black"/>
<path opacity="0.1" d="M237.927 26.77C238.031 26.6564 238.112 26.5227 238.163 26.377C238.193 26.2085 238.193 26.036 238.163 25.8675C238.098 24.918 238.221 23.965 238.525 23.0633L238.482 23.0133C238.027 24.0775 237.837 25.2363 237.927 26.3904C237.937 26.5167 237.937 26.6437 237.927 26.77Z" fill="black"/>
</g>
<path opacity="0.1" d="M241.944 43.5121C241.944 43.5121 251.61 44.7977 252.478 43.3423L241.944 43.5121Z" fill="black"/>
<path opacity="0.1" d="M260.734 39.5056C260.734 39.5056 266.108 39.5056 267.288 41.5305L260.734 39.5056Z" fill="black"/>
<path d="M290.797 219.399C289.203 220.826 287.132 221.601 284.994 221.571C284.449 221.571 283.694 221.674 283.691 222.22C283.704 222.38 283.759 222.534 283.851 222.666C284.525 223.793 285.591 224.631 286.843 225.021C288.007 225.374 289.251 225.314 290.464 225.251L294.006 225.067C294.671 225.031 295.336 224.998 296.001 224.914C296.666 224.831 297.39 224.694 298.085 224.581C299.793 224.338 301.52 224.258 303.243 224.341C303.702 224.358 304.24 224.341 304.513 224.008C304.786 223.675 304.646 223.039 304.543 222.54C304.33 221.511 304.543 220.432 304.347 219.399C304.014 217.587 302.448 216.199 300.732 215.542C299.136 214.936 296.31 214.24 294.8 215.253C293.207 216.315 292.233 218.09 290.797 219.399Z" fill="#3F3D56"/>
<path d="M294.315 158.699C294.627 160.187 296.067 161.326 296.107 162.845C296.144 164.064 295.276 165.086 294.651 166.129C294.062 167.208 293.564 168.336 293.164 169.499C291.987 172.528 290.527 175.439 288.802 178.192C287.97 179.524 287.039 180.946 287.229 182.495C287.361 183.219 287.617 183.915 287.984 184.553L290.478 189.515C291.024 190.506 291.451 191.558 291.751 192.649C291.967 193.592 291.987 194.567 292.114 195.527C292.506 198.571 293.932 201.635 293.088 204.585C293.015 204.838 292.755 205.145 292.552 204.968C293.377 206.51 294.039 208.062 293.976 209.811C293.942 210.727 293.663 211.682 293.999 212.535C294.142 212.891 294.391 213.224 294.388 213.607C294.388 213.861 294.272 214.097 294.245 214.343C294.175 215.046 294.82 215.632 295.489 215.855C296.157 216.079 296.885 216.062 297.56 216.265C298.857 216.655 299.785 217.774 300.885 218.55C302.014 219.329 303.345 219.763 304.716 219.799C304.911 219.82 305.109 219.78 305.281 219.685C305.379 219.6 305.457 219.494 305.511 219.376C305.565 219.258 305.593 219.129 305.594 218.999C305.654 218.377 305.56 217.75 305.322 217.173C305.083 216.596 304.706 216.086 304.224 215.689C304.012 215.557 303.838 215.373 303.715 215.156C303.653 214.964 303.637 214.76 303.668 214.56C303.869 211.83 303.82 209.088 303.522 206.367C303.388 205.505 303.344 204.631 303.392 203.759C303.462 203.033 303.682 202.314 303.602 201.591C303.522 200.869 303.153 200.209 302.937 199.513C302.551 198.274 302.658 196.942 302.604 195.646C302.538 193.395 302.022 191.184 301.51 188.986C301.308 188.123 301.085 187.22 300.476 186.581C299.958 186.038 299.12 185.519 299.316 184.796C299.424 184.529 299.586 184.288 299.791 184.086C300.032 183.784 300.209 183.435 300.311 183.062C300.412 182.688 300.437 182.298 300.383 181.915C300.602 181.971 300.833 181.949 301.038 181.853C301.242 181.757 301.407 181.593 301.504 181.389C305.554 179.474 308.819 175.644 310.275 171.398C310.361 171.082 310.494 170.781 310.668 170.505C311.044 169.979 311.695 169.752 312.274 169.463C314.089 168.547 315.343 166.831 316.493 165.153C317.158 164.18 317.824 163.175 318.123 162.029C318.28 161.288 318.355 160.532 318.346 159.774L318.449 155.861C318.471 155.603 318.446 155.344 318.375 155.095C318.277 154.863 318.133 154.652 317.953 154.476C316.847 153.304 315.395 152.52 313.81 152.238C312.746 152.048 311.659 152.084 310.581 151.994C308.493 151.821 306.432 151.172 304.343 151.328C301.061 151.571 298.139 153.849 296.593 156.76C296.051 157.786 295.479 158.679 294.315 158.699Z" fill="white"/>
<path d="M276.093 133.254C276.137 133.858 276.056 134.465 275.854 135.036C275.598 135.582 274.956 136.008 274.394 135.785C274.563 135.402 274.115 134.966 273.696 135.012C273.489 135.06 273.298 135.157 273.138 135.295C272.977 135.433 272.853 135.608 272.774 135.805C272.497 136.364 272.404 136.998 272.508 137.614C272.641 138.38 273.084 139.116 272.967 139.885C272.874 140.524 272.405 141.16 272.655 141.753C272.817 142.024 273.02 142.268 273.257 142.476C273.585 142.881 273.746 143.397 273.706 143.918C273.665 144.439 273.427 144.924 273.041 145.274L279.332 145.4C279.102 146.453 279.574 147.528 280.113 148.464C281.622 151.037 283.705 153.225 286.2 154.856C288.694 156.487 291.532 157.518 294.491 157.866C294.331 157.96 294.194 158.087 294.089 158.241C293.985 158.394 293.915 158.568 293.887 158.752C293.858 158.935 293.87 159.122 293.922 159.3C293.974 159.478 294.065 159.642 294.188 159.781C294.7 160.291 295.568 160.227 296.21 159.898C296.852 159.568 297.354 159.022 297.939 158.599C298.972 157.865 300.233 157.525 301.494 157.639C302.282 157.716 303.047 157.973 303.838 158.012C306.166 158.136 308.161 156.457 310.402 155.771C312.034 155.268 313.887 155.268 315.257 154.246C315.848 153.806 316.334 153.083 316.161 152.371C316.018 151.961 315.791 151.586 315.496 151.268C314.708 150.246 314.242 149.017 313.677 147.855C312.557 145.553 311.015 143.484 309.132 141.753C307.71 140.509 306.203 139.365 304.623 138.33C304.241 138.047 303.833 137.801 303.406 137.594C302.854 137.35 302.242 137.234 301.743 136.928C301.005 136.461 300.579 135.639 300.011 134.976C298.764 133.517 296.849 132.848 295.312 131.702C294.282 130.933 293.37 129.92 292.14 129.551C291.542 129.367 290.907 129.354 290.308 129.174C288.948 128.761 287.957 127.552 286.624 127.063C285.57 126.676 284.406 126.776 283.299 126.64C282.05 126.486 280.858 126.031 279.824 125.314C279.491 125.042 279.117 124.824 278.717 124.668C277.031 124.155 276.894 127.299 276.721 128.388C276.499 130.007 276.093 131.615 276.093 133.254Z" fill="#FF70A3"/>
<path d="M277.736 143.798C278.018 146.869 275.704 149.843 276.379 152.85C276.522 153.49 276.798 154.099 276.898 154.749C277.18 156.53 276.116 158.219 275.102 159.711L266.39 172.517C266.04 173.079 265.623 173.596 265.147 174.055C263.484 175.537 260.983 175.387 258.796 175.827C257.259 176.143 255.807 176.786 254.539 177.712C254.482 177.756 254.445 177.821 254.435 177.893C254.425 177.964 254.443 178.037 254.486 178.095C254.847 178.588 255.326 178.982 255.878 179.242C256.431 179.502 257.039 179.62 257.648 179.584C257.878 179.883 257.648 180.33 257.332 180.546C256.867 180.879 256.222 180.956 256.129 181.752C256.097 182.028 256.153 182.308 256.288 182.551C256.641 183.088 257.186 183.467 257.811 183.61C260.827 184.536 264.086 182.911 266.344 180.703C268.601 178.495 270.221 175.707 272.435 173.462C273.662 172.217 275.055 171.154 276.319 169.949C278.839 167.541 280.801 164.62 282.69 161.693C283.259 160.81 283.834 159.904 284.07 158.882C284.306 157.859 284.196 156.824 284.466 155.834C284.818 154.539 285.766 153.503 286.554 152.417C288.1 150.286 289.134 147.678 288.928 145.05C288.722 142.423 287.099 139.832 284.625 138.939C283.858 138.634 283.013 138.582 282.214 138.793C281.2 139.106 280.452 139.945 279.761 140.751L278.098 142.663C277.693 143.086 277.376 143.585 277.164 144.131C277.056 144.406 277.031 144.707 277.09 144.996C277.149 145.286 277.29 145.552 277.496 145.763" fill="#FBBEBE"/>
<path d="M282.151 131.202C281.008 131.269 279.747 131.382 278.939 132.202C278.6 132.578 278.326 133.008 278.128 133.474C277.343 135.076 276.578 136.751 276.522 138.536C276.475 139.962 276.888 141.357 277.104 142.766C277.283 143.938 276.828 145.134 276.741 146.319C278.161 145.883 280.037 145.29 281.323 144.554C282.201 144.051 283.049 143.478 284.007 143.159C285.373 142.702 287.664 143.492 288.965 144.125C289.034 143.212 288.349 141.62 288.423 140.704C288.433 140.319 288.501 139.937 288.625 139.572C288.82 139.186 289.05 138.819 289.314 138.476C289.809 137.67 290.036 136.728 289.964 135.785C289.892 134.841 289.523 133.945 288.911 133.224C287.758 131.925 285.952 131.439 284.23 131.226C283.145 131.1 282.052 131.062 280.961 131.113" fill="#FF70A3"/>
<defs>
<linearGradient id="paint0_linear" x1="234.828" y1="181.902" x2="234.828" y2="19.1567" gradientUnits="userSpaceOnUse">
<stop stop-color="#808080" stop-opacity="0.25"/>
<stop offset="0.54" stop-color="#808080" stop-opacity="0.12"/>
<stop offset="1" stop-color="#808080" stop-opacity="0.1"/>
</linearGradient>
</defs>
</svg>
